<mxfile host="app.diagrams.net" agent="Mozilla/5.0 (Windows NT 10.0; Win64; x64) AppleWebKit/537.36 (KHTML, like Gecko) Chrome/131.0.0.0 Safari/537.36" version="24.8.6">
  <diagram name="หน้า-1" id="ehB7OBbtHQv4O5oK-GFu">
    <mxGraphModel dx="1050" dy="530" grid="1" gridSize="10" guides="1" tooltips="1" connect="1" arrows="1" fold="1" page="1" pageScale="1" pageWidth="827" pageHeight="1169" math="0" shadow="0">
      <root>
        <mxCell id="0" />
        <mxCell id="1" parent="0" />
        <mxCell id="mAgv807EXswh5g5DdXHj-8" style="edgeStyle=orthogonalEdgeStyle;rounded=0;orthogonalLoop=1;jettySize=auto;html=1;exitX=0.5;exitY=1;exitDx=0;exitDy=0;entryX=0.5;entryY=0;entryDx=0;entryDy=0;" edge="1" parent="1" source="mAgv807EXswh5g5DdXHj-1" target="mAgv807EXswh5g5DdXHj-2">
          <mxGeometry relative="1" as="geometry" />
        </mxCell>
        <mxCell id="mAgv807EXswh5g5DdXHj-1" value="start" style="ellipse;whiteSpace=wrap;html=1;" vertex="1" parent="1">
          <mxGeometry x="354" y="10" width="120" height="40" as="geometry" />
        </mxCell>
        <mxCell id="mAgv807EXswh5g5DdXHj-9" style="edgeStyle=orthogonalEdgeStyle;rounded=0;orthogonalLoop=1;jettySize=auto;html=1;exitX=0.5;exitY=1;exitDx=0;exitDy=0;entryX=0.5;entryY=0;entryDx=0;entryDy=0;" edge="1" parent="1" source="mAgv807EXswh5g5DdXHj-2" target="mAgv807EXswh5g5DdXHj-3">
          <mxGeometry relative="1" as="geometry" />
        </mxCell>
        <mxCell id="mAgv807EXswh5g5DdXHj-2" value="a = 10" style="shape=parallelogram;perimeter=parallelogramPerimeter;whiteSpace=wrap;html=1;fixedSize=1;" vertex="1" parent="1">
          <mxGeometry x="364" y="70" width="100" height="30" as="geometry" />
        </mxCell>
        <mxCell id="mAgv807EXswh5g5DdXHj-10" style="edgeStyle=orthogonalEdgeStyle;rounded=0;orthogonalLoop=1;jettySize=auto;html=1;exitX=0.5;exitY=1;exitDx=0;exitDy=0;entryX=0.5;entryY=0;entryDx=0;entryDy=0;" edge="1" parent="1" source="mAgv807EXswh5g5DdXHj-3" target="mAgv807EXswh5g5DdXHj-4">
          <mxGeometry relative="1" as="geometry" />
        </mxCell>
        <mxCell id="mAgv807EXswh5g5DdXHj-3" value="b = 20.00..." style="shape=parallelogram;perimeter=parallelogramPerimeter;whiteSpace=wrap;html=1;fixedSize=1;" vertex="1" parent="1">
          <mxGeometry x="366" y="120" width="96" height="30" as="geometry" />
        </mxCell>
        <mxCell id="mAgv807EXswh5g5DdXHj-11" style="edgeStyle=orthogonalEdgeStyle;rounded=0;orthogonalLoop=1;jettySize=auto;html=1;exitX=0.5;exitY=1;exitDx=0;exitDy=0;entryX=0.5;entryY=0;entryDx=0;entryDy=0;" edge="1" parent="1" source="mAgv807EXswh5g5DdXHj-4" target="mAgv807EXswh5g5DdXHj-5">
          <mxGeometry relative="1" as="geometry" />
        </mxCell>
        <mxCell id="mAgv807EXswh5g5DdXHj-4" value="c = haha" style="shape=parallelogram;perimeter=parallelogramPerimeter;whiteSpace=wrap;html=1;fixedSize=1;" vertex="1" parent="1">
          <mxGeometry x="364" y="170" width="96" height="30" as="geometry" />
        </mxCell>
        <mxCell id="mAgv807EXswh5g5DdXHj-12" style="edgeStyle=orthogonalEdgeStyle;rounded=0;orthogonalLoop=1;jettySize=auto;html=1;exitX=0.5;exitY=1;exitDx=0;exitDy=0;entryX=0.5;entryY=0;entryDx=0;entryDy=0;" edge="1" parent="1" source="mAgv807EXswh5g5DdXHj-5" target="mAgv807EXswh5g5DdXHj-6">
          <mxGeometry relative="1" as="geometry" />
        </mxCell>
        <mxCell id="mAgv807EXswh5g5DdXHj-5" value="d = a" style="shape=parallelogram;perimeter=parallelogramPerimeter;whiteSpace=wrap;html=1;fixedSize=1;" vertex="1" parent="1">
          <mxGeometry x="365" y="220" width="94" height="30" as="geometry" />
        </mxCell>
        <mxCell id="mAgv807EXswh5g5DdXHj-13" style="edgeStyle=orthogonalEdgeStyle;rounded=0;orthogonalLoop=1;jettySize=auto;html=1;exitX=0.5;exitY=1;exitDx=0;exitDy=0;entryX=0.5;entryY=0;entryDx=0;entryDy=0;" edge="1" parent="1" source="mAgv807EXswh5g5DdXHj-6" target="mAgv807EXswh5g5DdXHj-7">
          <mxGeometry relative="1" as="geometry" />
        </mxCell>
        <mxCell id="mAgv807EXswh5g5DdXHj-6" value="output a b c d" style="shape=parallelogram;perimeter=parallelogramPerimeter;whiteSpace=wrap;html=1;fixedSize=1;" vertex="1" parent="1">
          <mxGeometry x="362" y="270" width="104" height="30" as="geometry" />
        </mxCell>
        <mxCell id="mAgv807EXswh5g5DdXHj-7" value="end" style="ellipse;whiteSpace=wrap;html=1;" vertex="1" parent="1">
          <mxGeometry x="354" y="320" width="120" height="40" as="geometry" />
        </mxCell>
      </root>
    </mxGraphModel>
  </diagram>
</mxfile>
